<?xml version="1.0" encoding="UTF-8" standalone="no"?>
<!DOCTYPE svg PUBLIC "-//W3C//DTD SVG 1.1//EN" "http://www.w3.org/Graphics/SVG/1.1/DTD/svg11.dtd">
<svg width="100%" height="100%" viewBox="0 0 40 40" version="1.1" xmlns="http://www.w3.org/2000/svg" xmlns:xlink="http://www.w3.org/1999/xlink" xml:space="preserve" xmlns:serif="http://www.serif.com/" style="fill-rule:evenodd;clip-rule:evenodd;stroke-linejoin:round;stroke-miterlimit:2;">
    <g transform="matrix(1,0,0,1,-82,0)">
        <g id="horizontal" transform="matrix(1,0,0,1,-0.253406,0)">
            <rect x="82.253" y="0" width="40" height="40" style="fill:none;"/>
            <g transform="matrix(0.977061,0,0,0.977061,82.7122,0.458775)">
                <circle cx="20" cy="20" r="14.329" style="fill:rgb(208,199,255);"/>
            </g>
            <g>
                <g transform="matrix(5.0956e-17,0.832175,-0.832175,5.0956e-17,121.045,-30.7007)">
                    <path d="M60.066,11.705C60.229,11.379 60.561,11.174 60.926,11.174C61.29,11.174 61.623,11.379 61.785,11.705C61.867,11.869 63.636,15.405 64.209,16.553C64.358,16.851 64.343,17.205 64.167,17.488C63.992,17.772 63.683,17.944 63.35,17.944C63.097,17.944 59.618,17.944 58.501,17.944C58.168,17.944 57.859,17.772 57.684,17.488C57.508,17.205 57.493,16.851 57.642,16.553C57.809,16.218 59.528,12.781 60.066,11.705Z" style="fill:rgb(27,30,34);"/>
                </g>
                <g transform="matrix(5.0956e-17,-0.832175,0.832175,5.0956e-17,83.4622,70.7007)">
                    <path d="M60.066,11.705C60.229,11.379 60.561,11.174 60.926,11.174C61.29,11.174 61.623,11.379 61.785,11.705C61.867,11.869 63.636,15.405 64.209,16.553C64.358,16.851 64.343,17.205 64.167,17.488C63.992,17.772 63.683,17.944 63.35,17.944C63.097,17.944 59.618,17.944 58.501,17.944C58.168,17.944 57.859,17.772 57.684,17.488C57.508,17.205 57.493,16.851 57.642,16.553C57.809,16.218 59.528,12.781 60.066,11.705Z" style="fill:rgb(27,30,34);"/>
                </g>
            </g>
        </g>
    </g>
</svg>
